<?xml version="1.0" encoding="UTF-8"?>
<!DOCTYPE svg PUBLIC "-//W3C//DTD SVG 1.1//EN" "http://www.w3.org/Graphics/SVG/1.1/DTD/svg11.dtd">
<svg xmlns="http://www.w3.org/2000/svg" version="1.1" width="100px" height="100px" style="shape-rendering:geometricPrecision; text-rendering:geometricPrecision; image-rendering:optimizeQuality; fill-rule:evenodd; clip-rule:evenodd" xmlns:xlink="http://www.w3.org/1999/xlink">
<g><path style="opacity:0.797" fill="#0d0401" d="M 53.5,5.5 C 56.8621,5.06952 59.6954,6.06952 62,8.5C 62.6714,12.0924 62.338,15.4258 61,18.5C 70.4192,15.6031 79.9192,12.9364 89.5,10.5C 92.3417,24.8882 94.675,39.3882 96.5,54C 96.1667,55.1667 95.8333,56.3333 95.5,57.5C 83.5684,61.5246 71.4018,64.5246 59,66.5C 56.8333,66.3333 54.6667,66.1667 52.5,66C 52,65.5 51.5,65 51,64.5C 50.8933,61.869 50.7266,59.369 50.5,57C 44.3858,56.2604 38.8858,57.7604 34,61.5C 33.6667,69.1667 33.3333,76.8333 33,84.5C 32.8132,88.2292 31.1465,90.8958 28,92.5C 25.8121,92.646 24.4788,91.646 24,89.5C 23.0628,64.466 22.3961,39.466 22,14.5C 23.8815,8.23044 26.5482,7.8971 30,13.5C 37.791,10.4348 45.6244,7.76812 53.5,5.5 Z"/></g>
<g><path style="opacity:1" fill="#ec4722" d="M 52.5,8.5 C 54.7925,8.24358 56.9592,8.57692 59,9.5C 59.664,12.5159 59.164,15.3492 57.5,18C 57.6448,18.772 57.9781,19.4387 58.5,20C 60.8333,20.6667 63.1667,20.6667 65.5,20C 72.6898,17.5359 80.0231,15.7026 87.5,14.5C 90.4303,28.0115 92.4303,41.6782 93.5,55.5C 84.0998,57.6879 74.7664,60.1879 65.5,63C 61.8779,64.1056 58.2113,64.4389 54.5,64C 54.3298,55.2444 53.6632,46.4111 52.5,37.5C 52.3753,32.5123 53.042,27.679 54.5,23C 54,22.5 53.5,22 53,21.5C 50.7674,26.8806 49.6007,32.5473 49.5,38.5C 50.0085,43.5299 50.6751,48.5299 51.5,53.5C 45.2665,53.1838 39.4332,54.5171 34,57.5C 32.7405,44.1463 31.5738,30.813 30.5,17.5C 31.3636,15.8035 32.6969,14.6368 34.5,14C 40.7109,12.4536 46.7109,10.6202 52.5,8.5 Z"/></g>
<g><path style="opacity:1" fill="#b55d24" d="M 24.5,13.5 C 26.4109,13.5743 27.5776,14.5743 28,16.5C 30.3321,39.4403 30.9988,62.4403 30,85.5C 29.5291,87.2464 28.8624,88.913 28,90.5C 26.1673,87.9983 25.334,85.1649 25.5,82C 25.9895,77.6793 26.3228,73.346 26.5,69C 24.8081,50.542 24.1414,32.042 24.5,13.5 Z"/></g>
</svg>
