<?xml version="1.0" encoding="UTF-8"?>
<svg version="1.1" xmlns="http://www.w3.org/2000/svg" width="100" height="100">
<path d="M0 0 C0.85550949 -0.0049649 1.71101898 -0.00992981 2.592453 -0.01504517 C5.43257443 -0.02968996 8.27263993 -0.03647426 11.11279297 -0.04199219 C13.08617149 -0.04774377 15.05954998 -0.0535015 17.03292847 -0.05926514 C21.17739116 -0.06978311 25.32183442 -0.07561989 29.46630859 -0.07910156 C34.76567774 -0.08457392 40.06478834 -0.10857164 45.36407661 -0.13707352 C49.44427222 -0.1557439 53.52440626 -0.16090794 57.60464096 -0.16243744 C59.55738608 -0.16545689 61.5101303 -0.17346146 63.4628334 -0.18662262 C66.2032833 -0.20376756 68.94311128 -0.2017818 71.68359375 -0.1953125 C72.48390518 -0.20452728 73.28421661 -0.21374207 74.10877991 -0.22323608 C79.59975229 -0.18283792 83.68157208 0.98907691 88.72998047 3.16113281 C88.71837891 3.78761719 88.70677734 4.41410156 88.69482422 5.05957031 C88.68580078 5.87683594 88.67677734 6.69410156 88.66748047 7.53613281 C88.65587891 8.34824219 88.64427734 9.16035156 88.63232422 9.99707031 C88.58531712 12.21050424 88.58531712 12.21050424 89.72998047 14.16113281 C89.86413519 16.83349491 89.77316587 19.4836377 89.72998047 22.16113281 C84.14732187 24.04796295 79.26688246 24.43815579 73.39819336 24.38818359 C72.49008911 24.38847565 71.58198486 24.3887677 70.6463623 24.3890686 C67.66502094 24.3876828 64.68393406 24.37215701 61.70263672 24.35644531 C59.62755978 24.35271252 57.55248107 24.3498668 55.47740173 24.34786987 C50.030905 24.34025443 44.5845159 24.32062389 39.13806152 24.29846191 C33.57431494 24.27795845 28.01055087 24.26885854 22.44677734 24.25878906 C11.54112363 24.237376 0.63557786 24.20221089 -10.27001953 24.16113281 C-10.27001953 16.57113281 -10.27001953 8.98113281 -10.27001953 1.16113281 C-7.05088257 -0.44843567 -3.53693163 0.00486646 0 0 Z " fill="#D2DCDC" transform="translate(10.27001953125,46.8388671875)"/>
<path d="M0 0 C0.85550949 -0.0049649 1.71101898 -0.00992981 2.592453 -0.01504517 C5.43257443 -0.02968996 8.27263993 -0.03647426 11.11279297 -0.04199219 C13.08617149 -0.04774377 15.05954998 -0.0535015 17.03292847 -0.05926514 C21.17739116 -0.06978311 25.32183442 -0.07561989 29.46630859 -0.07910156 C34.76567774 -0.08457392 40.06478834 -0.10857164 45.36407661 -0.13707352 C49.44427222 -0.1557439 53.52440626 -0.16090794 57.60464096 -0.16243744 C59.55738608 -0.16545689 61.5101303 -0.17346146 63.4628334 -0.18662262 C66.2032833 -0.20376756 68.94311128 -0.2017818 71.68359375 -0.1953125 C72.48390518 -0.20452728 73.28421661 -0.21374207 74.10877991 -0.22323608 C79.59975229 -0.18283792 83.68157208 0.98907691 88.72998047 3.16113281 C88.71837891 3.78761719 88.70677734 4.41410156 88.69482422 5.05957031 C88.68580078 5.87683594 88.67677734 6.69410156 88.66748047 7.53613281 C88.65587891 8.34824219 88.64427734 9.16035156 88.63232422 9.99707031 C88.58531712 12.21050424 88.58531712 12.21050424 89.72998047 14.16113281 C89.86413519 16.83349491 89.77316587 19.4836377 89.72998047 22.16113281 C84.14732187 24.04796295 79.26688246 24.43815579 73.39819336 24.38818359 C72.49008911 24.38847565 71.58198486 24.3887677 70.6463623 24.3890686 C67.66502094 24.3876828 64.68393406 24.37215701 61.70263672 24.35644531 C59.62755978 24.35271252 57.55248107 24.3498668 55.47740173 24.34786987 C50.030905 24.34025443 44.5845159 24.32062389 39.13806152 24.29846191 C33.57431494 24.27795845 28.01055087 24.26885854 22.44677734 24.25878906 C11.54112363 24.237376 0.63557786 24.20221089 -10.27001953 24.16113281 C-10.27001953 16.57113281 -10.27001953 8.98113281 -10.27001953 1.16113281 C-7.05088257 -0.44843567 -3.53693163 0.00486646 0 0 Z M16.72998047 3.16113281 C15.14301203 6.3350697 15.58683577 9.74287486 15.60498047 13.22363281 C15.60111328 13.96935547 15.59724609 14.71507812 15.59326172 15.48339844 C15.25786895 19.12030605 15.25786895 19.12030605 16.72998047 22.16113281 C18.693672 22.25513951 20.66077246 22.27856663 22.62670898 22.2746582 C24.51855675 22.27454491 24.51855675 22.27454491 26.44862366 22.27442932 C27.83537841 22.26932191 29.22213276 22.26410591 30.60888672 22.25878906 C32.01993256 22.25692483 33.43097904 22.25550095 34.84202576 22.25450134 C38.56238582 22.25067661 42.28270707 22.24084671 46.00305176 22.22979736 C49.79678828 22.21958229 53.59053105 22.21500352 57.38427734 22.20996094 C64.83286483 22.19922439 72.28141227 22.18162796 79.72998047 22.16113281 C79.72998047 15.89113281 79.72998047 9.62113281 79.72998047 3.16113281 C58.93998047 3.16113281 38.14998047 3.16113281 16.72998047 3.16113281 Z " fill="#0C0C0B" transform="translate(10.27001953125,46.8388671875)"/>
<path d="M0 0 C7.26 0 14.52 0 22 0 C22.33 6.27 22.66 12.54 23 19 C15.41 19 7.82 19 0 19 C0 12.73 0 6.46 0 0 Z " fill="#EE801F" transform="translate(2,50)"/>
<path d="M0 0 C-1.07389924 2.23040612 -2.11467539 4.14996013 -3.625 6.125 C-5.66311806 10.38651959 -5.68551131 14.35900963 -5 19 C-2.96057236 22.22909376 -0.48269443 23.26230008 2.875 24.8125 C8.33924443 27.44795495 11.83112092 30.97855785 14.03515625 36.67578125 C14.77399816 39.10536836 15.43237434 41.52535129 16 44 C14.68 44 13.36 44 12 44 C11.35309078 42.3962669 10.70751236 40.79199694 10.0625 39.1875 C9.70285156 38.29417969 9.34320313 37.40085938 8.97265625 36.48046875 C8.26386514 34.6729091 7.6139753 32.84192591 7 31 C4.81862203 29.97549761 4.81862203 29.97549761 2 29 C-7.08768822 25.04960142 -7.08768822 25.04960142 -9 21 C-10.75808709 13.59091871 -9.25406666 8.01811883 -5.5625 1.4375 C-4 0 -4 0 0 0 Z " fill="#000000" transform="translate(78,0)"/>
<path d="M0 0 C0.99 0 1.98 0 3 0 C2.43393721 4.69023454 1.81462495 9.34500026 1 14 C1.721875 14.2475 2.44375 14.495 3.1875 14.75 C6.38928962 16.17301761 8.50144439 17.53049736 11 20 C11.55859375 23.05859375 11.55859375 23.05859375 11.4375 26.4375 C11.41558594 27.54996094 11.39367187 28.66242187 11.37109375 29.80859375 C11.01263775 32.89131536 10.30298979 35.20040346 9 38 C8.01 38 7.02 38 6 38 C6.165 37.21625 6.33 36.4325 6.5 35.625 C6.665 34.42875 6.83 33.2325 7 32 C7.17208984 30.80503906 7.17208984 30.80503906 7.34765625 29.5859375 C7.57483268 26.85155939 7.6227844 24.67840845 7 22 C5.13950798 19.96998707 3.30113538 18.66824436 0.9453125 17.25390625 C-1 16 -1 16 -3 13 C-2.79296875 10.87890625 -2.79296875 10.87890625 -2.1875 8.5625 C-1.99542969 7.80066406 -1.80335937 7.03882813 -1.60546875 6.25390625 C-1.40566406 5.51011719 -1.20585938 4.76632813 -1 4 C-0.66505855 2.66706973 -0.33118813 1.3338678 0 0 Z " fill="#000000" transform="translate(89,6)"/>
<path d="M0 0 C1.32 0 2.64 0 4 0 C4.06058594 0.65226562 4.12117188 1.30453125 4.18359375 1.9765625 C4.55698013 5.87126962 4.94850863 9.7064992 5.625 13.5625 C5.74875 14.366875 5.8725 15.17125 6 16 C5.67 16.33 5.34 16.66 5 17 C3.35 17 1.7 17 0 17 C0 11.39 0 5.78 0 0 Z " fill="#373837" transform="translate(92,51)"/>
</svg>
