<?xml version="1.0" encoding="UTF-8"?>
<svg version="1.1" xmlns="http://www.w3.org/2000/svg" width="100" height="100">
<path d="M0 0 C3.3125 0.625 3.3125 0.625 4.7199707 2.24829102 C8.65229993 8.43790262 12.27887169 14.76267523 15.8125 21.1875 C21.36764358 31.2064373 27.05975793 41.13446122 32.86914062 51.00805664 C33.42279297 51.95028076 33.97644531 52.89250488 34.546875 53.86328125 C35.03381836 54.68868408 35.52076172 55.51408691 36.02246094 56.36450195 C38.54253289 60.78035097 39.65979097 63.41563542 39.3125 68.625 C37.64187911 70.29562089 35.60696174 69.75069043 33.37612915 69.76052856 C32.67063934 69.75850433 31.96514954 69.7564801 31.23828125 69.75439453 C30.12856461 69.75702301 30.12856461 69.75702301 28.99642944 69.75970459 C26.53926277 69.7641231 24.08216747 69.76118513 21.625 69.7578125 C19.92488593 69.75848554 18.22477195 69.75945557 16.5246582 69.76071167 C12.95685919 69.76218864 9.38908517 69.76003411 5.82128906 69.75537109 C1.23761506 69.7496738 -3.34600039 69.75295281 -7.92967224 69.75894356 C-11.44169561 69.76254919 -14.95370498 69.76141057 -18.46572876 69.75881577 C-20.15630093 69.7581465 -21.84687436 69.75897489 -23.53744507 69.76129532 C-25.89609157 69.76382189 -28.25464195 69.75998121 -30.61328125 69.75439453 C-31.31877106 69.75641876 -32.02426086 69.75844299 -32.75112915 69.76052856 C-37.57323729 69.73926271 -37.57323729 69.73926271 -38.6875 68.625 C-39.10373108 63.86280155 -38.24440239 61.09584415 -35.8984375 56.9765625 C-34.99049438 55.36189087 -34.99049438 55.36189087 -34.06420898 53.71459961 C-33.39734932 52.55951554 -32.73010383 51.40465413 -32.0625 50.25 C-31.38192893 49.05206136 -30.70233547 47.85356684 -30.02368164 46.65454102 C-27.93026105 42.9671875 -25.8107329 39.29524298 -23.6875 35.625 C-23.03152832 34.48756348 -22.37555664 33.35012695 -21.69970703 32.17822266 C-16.64069954 23.41882406 -11.52521114 14.69375663 -6.34765625 6.00390625 C-5.86047119 5.18607666 -5.37328613 4.36824707 -4.87133789 3.52563477 C-3.12851794 0.72756231 -3.12851794 0.72756231 0 0 Z " fill="#F6E35B" transform="translate(49.6875,14.375)"/>
<path d="M0 0 C3.3125 0.625 3.3125 0.625 4.7199707 2.24829102 C8.65229993 8.43790262 12.27887169 14.76267523 15.8125 21.1875 C21.36764358 31.2064373 27.05975793 41.13446122 32.86914062 51.00805664 C33.42279297 51.95028076 33.97644531 52.89250488 34.546875 53.86328125 C35.03381836 54.68868408 35.52076172 55.51408691 36.02246094 56.36450195 C38.54253289 60.78035097 39.65979097 63.41563542 39.3125 68.625 C37.64187911 70.29562089 35.60696174 69.75069043 33.37612915 69.76052856 C32.67063934 69.75850433 31.96514954 69.7564801 31.23828125 69.75439453 C30.12856461 69.75702301 30.12856461 69.75702301 28.99642944 69.75970459 C26.53926277 69.7641231 24.08216747 69.76118513 21.625 69.7578125 C19.92488593 69.75848554 18.22477195 69.75945557 16.5246582 69.76071167 C12.95685919 69.76218864 9.38908517 69.76003411 5.82128906 69.75537109 C1.23761506 69.7496738 -3.34600039 69.75295281 -7.92967224 69.75894356 C-11.44169561 69.76254919 -14.95370498 69.76141057 -18.46572876 69.75881577 C-20.15630093 69.7581465 -21.84687436 69.75897489 -23.53744507 69.76129532 C-25.89609157 69.76382189 -28.25464195 69.75998121 -30.61328125 69.75439453 C-31.31877106 69.75641876 -32.02426086 69.75844299 -32.75112915 69.76052856 C-37.57323729 69.73926271 -37.57323729 69.73926271 -38.6875 68.625 C-39.10373108 63.86280155 -38.24440239 61.09584415 -35.8984375 56.9765625 C-34.99049438 55.36189087 -34.99049438 55.36189087 -34.06420898 53.71459961 C-33.39734932 52.55951554 -32.73010383 51.40465413 -32.0625 50.25 C-31.38192893 49.05206136 -30.70233547 47.85356684 -30.02368164 46.65454102 C-27.93026105 42.9671875 -25.8107329 39.29524298 -23.6875 35.625 C-23.03152832 34.48756348 -22.37555664 33.35012695 -21.69970703 32.17822266 C-16.64069954 23.41882406 -11.52521114 14.69375663 -6.34765625 6.00390625 C-5.86047119 5.18607666 -5.37328613 4.36824707 -4.87133789 3.52563477 C-3.12851794 0.72756231 -3.12851794 0.72756231 0 0 Z M-0.6875 7.625 C-1.75628582 9.17636779 -2.76745714 10.76762492 -3.75 12.375 C-4.29785156 13.25671875 -4.84570312 14.1384375 -5.41015625 15.046875 C-6.98346818 17.74283201 -6.98346818 17.74283201 -6.6875 21.625 C-7.6775 21.955 -8.6675 22.285 -9.6875 22.625 C-9.831875 23.2025 -9.97625 23.78 -10.125 24.375 C-10.6875 26.625 -10.6875 26.625 -12.625 29 C-14.81714273 31.48356716 -14.81714273 31.48356716 -15.61279297 34.42871094 C-16.72530915 37.7374483 -18.1534444 40.40033546 -19.9453125 43.390625 C-20.57050781 44.44507813 -21.19570313 45.49953125 -21.83984375 46.5859375 C-22.49082031 47.67132813 -23.14179688 48.75671875 -23.8125 49.875 C-25.110671 52.04454605 -26.40514699 54.2163088 -27.6953125 56.390625 C-28.26910645 57.34743164 -28.84290039 58.30423828 -29.43408203 59.29003906 C-30.84515591 61.47700774 -30.84515591 61.47700774 -30.6875 63.625 C-10.2275 63.625 10.2325 63.625 31.3125 63.625 C30.07790872 60.5385218 29.00035459 57.88574518 27.421875 55.04296875 C27.04893311 54.36999756 26.67599121 53.69702637 26.29174805 53.00366211 C25.88609619 52.28057861 25.48044434 51.55749512 25.0625 50.8125 C24.63428955 50.04494385 24.2060791 49.2773877 23.76489258 48.48657227 C19.34892664 40.61375365 14.79481661 32.82129371 10.22363281 25.0378418 C6.84134523 19.27512221 3.52406911 13.48472105 0.3125 7.625 C-0.0175 7.625 -0.3475 7.625 -0.6875 7.625 Z " fill="#828FA1" transform="translate(49.6875,14.375)"/>
<path d="M0 0 C3.3125 0.625 3.3125 0.625 4.7199707 2.24829102 C8.65229993 8.43790262 12.27887169 14.76267523 15.8125 21.1875 C21.36764358 31.2064373 27.05975793 41.13446122 32.86914062 51.00805664 C33.42279297 51.95028076 33.97644531 52.89250488 34.546875 53.86328125 C35.03381836 54.68868408 35.52076172 55.51408691 36.02246094 56.36450195 C38.54253289 60.78035097 39.65979097 63.41563542 39.3125 68.625 C37.64187911 70.29562089 35.60696174 69.75069043 33.37612915 69.76052856 C32.67063934 69.75850433 31.96514954 69.7564801 31.23828125 69.75439453 C30.12856461 69.75702301 30.12856461 69.75702301 28.99642944 69.75970459 C26.53926277 69.7641231 24.08216747 69.76118513 21.625 69.7578125 C19.92488593 69.75848554 18.22477195 69.75945557 16.5246582 69.76071167 C12.95685919 69.76218864 9.38908517 69.76003411 5.82128906 69.75537109 C1.23761506 69.7496738 -3.34600039 69.75295281 -7.92967224 69.75894356 C-11.44169561 69.76254919 -14.95370498 69.76141057 -18.46572876 69.75881577 C-20.15630093 69.7581465 -21.84687436 69.75897489 -23.53744507 69.76129532 C-25.89609157 69.76382189 -28.25464195 69.75998121 -30.61328125 69.75439453 C-31.31877106 69.75641876 -32.02426086 69.75844299 -32.75112915 69.76052856 C-37.57323729 69.73926271 -37.57323729 69.73926271 -38.6875 68.625 C-39.10373108 63.86280155 -38.24440239 61.09584415 -35.8984375 56.9765625 C-34.99049438 55.36189087 -34.99049438 55.36189087 -34.06420898 53.71459961 C-33.39734932 52.55951554 -32.73010383 51.40465413 -32.0625 50.25 C-31.38192893 49.05206136 -30.70233547 47.85356684 -30.02368164 46.65454102 C-27.93026105 42.9671875 -25.8107329 39.29524298 -23.6875 35.625 C-23.03152832 34.48756348 -22.37555664 33.35012695 -21.69970703 32.17822266 C-16.64069954 23.41882406 -11.52521114 14.69375663 -6.34765625 6.00390625 C-5.86047119 5.18607666 -5.37328613 4.36824707 -4.87133789 3.52563477 C-3.12851794 0.72756231 -3.12851794 0.72756231 0 0 Z M-0.6875 2.625 C-6.11930428 9.21543286 -10.0079426 17.27497265 -14.1875 24.6875 C-15.59038488 27.1691414 -16.99549895 29.64950766 -18.40234375 32.12890625 C-18.75590439 32.75233917 -19.10946503 33.37577209 -19.47373962 34.01809692 C-21.88914237 38.26217158 -24.36480528 42.466102 -26.87890625 46.65234375 C-27.53117187 47.74474365 -28.1834375 48.83714355 -28.85546875 49.96264648 C-30.09675282 52.03459914 -31.34772897 54.10078313 -32.609375 56.16040039 C-33.16238281 57.08715576 -33.71539062 58.01391113 -34.28515625 58.96875 C-34.77508057 59.77505859 -35.26500488 60.58136719 -35.76977539 61.41210938 C-37.04758519 63.87240987 -37.04758519 63.87240987 -35.6875 67.625 C-11.9275 67.625 11.8325 67.625 36.3125 67.625 C37.67258519 63.87240987 37.67258519 63.87240987 36.39477539 61.41210938 C35.90485107 60.60580078 35.41492676 59.79949219 34.91015625 58.96875 C34.35714844 58.04199463 33.80414063 57.11523926 33.234375 56.16040039 C32.62078125 55.15871826 32.0071875 54.15703613 31.375 53.125 C30.08301525 50.96841772 28.79272103 48.81082197 27.50390625 46.65234375 C26.9961113 45.8068119 26.9961113 45.8068119 26.47805786 44.94419861 C23.93663509 40.7045937 21.46572923 36.42850756 19.02734375 32.12890625 C18.67446793 31.50700409 18.3215921 30.88510193 17.95802307 30.24435425 C16.57160903 27.79836006 15.18686375 25.35144148 13.80593872 22.90234375 C8.13503968 12.38688344 8.13503968 12.38688344 1.3125 2.625 C0.6525 2.625 -0.0075 2.625 -0.6875 2.625 Z " fill="#21242E" transform="translate(49.6875,14.375)"/>
<path d="M0 0 C0.66 0.33 1.32 0.66 2 1 C0.06211228 4.46938865 -1.87680553 7.93819939 -3.81665039 11.40649414 C-4.79822596 13.16197189 -5.77900173 14.91789677 -6.75976562 16.67382812 C-7.38173828 17.78564453 -8.00371094 18.89746094 -8.64453125 20.04296875 C-9.21534424 21.06414795 -9.78615723 22.08532715 -10.37426758 23.13745117 C-11.87594156 25.78156102 -13.43553171 28.39255286 -15 31 C5.46 31 25.92 31 47 31 C46.505 29.02 46.505 29.02 46 27 C47.5 28.375 47.5 28.375 49 30 C49 30.66 49 31.32 49 32 C27.22 32 5.44 32 -17 32 C-17.66 30.68 -18.32 29.36 -19 28 C-18.00537109 25.2668457 -18.00537109 25.2668457 -16.2734375 22.17578125 C-15.34337891 20.50999023 -15.34337891 20.50999023 -14.39453125 18.81054688 C-14.06275879 18.2368335 -13.73098633 17.66312012 -13.38916016 17.07202148 C-12.37898238 15.31940925 -11.4011138 13.55148745 -10.42578125 11.77929688 C-5.54854805 3.18154594 -5.54854805 3.18154594 -2.84228516 2.28588867 C-2.23433105 2.19154541 -1.62637695 2.09720215 -1 2 C-0.67 1.34 -0.34 0.68 0 0 Z " fill="#3E434C" transform="translate(34,47)"/>
<path d="M0 0 C2.64 0 5.28 0 8 0 C7.67 8.25 7.34 16.5 7 25 C5.35 25.33 3.7 25.66 2 26 C0.25493385 24.25493385 0.76717216 21.80960857 0.68359375 19.43359375 C0.64169922 18.30888672 0.59980469 17.18417969 0.55664062 16.02539062 C0.51732422 14.84138672 0.47800781 13.65738281 0.4375 12.4375 C0.39431641 11.24962891 0.35113281 10.06175781 0.30664062 8.83789062 C0.20016454 5.89205216 0.09815159 2.9461257 0 0 Z " fill="#4F6074" transform="translate(46,39)"/>
<path d="M0 0 C-0.46007655 4.6927808 -0.95166681 8.29845255 -4 12 C-6.6875 12.8125 -6.6875 12.8125 -9 13 C-5.06976744 0 -5.06976744 0 0 0 Z " fill="#808DA2" transform="translate(24,64)"/>
<path d="M0 0 C-0.8125 2.4375 -0.8125 2.4375 -2 5 C-2.99 5.33 -3.98 5.66 -5 6 C-5.71727778 7.64551962 -6.38325228 9.31422289 -7 11 C-7.66 11.66 -8.32 12.32 -9 13 C-9.66 13 -10.32 13 -11 13 C-7.06976744 0 -7.06976744 0 0 0 Z " fill="#747E88" transform="translate(41,38)"/>
<path d="M0 0 C1.67542976 0.28604898 3.34385343 0.61781233 5 1 C5 2.65 5 4.3 5 6 C3.34385343 6.38218767 1.67542976 6.71395102 0 7 C-1 6 -1 6 -1.125 3.5 C-1 1 -1 1 0 0 Z " fill="#4D5A67" transform="translate(48,68)"/>
<path d="M0 0 C0.33 0.66 0.66 1.32 1 2 C-0.125 4.5625 -0.125 4.5625 -2 7 C-4.6875 7.8125 -4.6875 7.8125 -7 8 C-6.875 6.25 -6.875 6.25 -6 4 C-2.9375 1.75 -2.9375 1.75 0 0 Z " fill="#717A85" transform="translate(22,69)"/>
<path d="M0 0 C0.66 0.33 1.32 0.66 2 1 C0.68 3.31 -0.64 5.62 -2 8 C-2.99 8 -3.98 8 -5 8 C-3.375 2.25 -3.375 2.25 0 0 Z " fill="#8B99AE" transform="translate(35,43)"/>
<path d="M0 0 C0.66 0.33 1.32 0.66 2 1 C0.68 3.31 -0.64 5.62 -2 8 C-2.66 7.34 -3.32 6.68 -4 6 C-4.99 6.495 -4.99 6.495 -6 7 C-5.1875 5.0625 -5.1875 5.0625 -4 3 C-3.01 2.67 -2.02 2.34 -1 2 C-0.67 1.34 -0.34 0.68 0 0 Z " fill="#666D73" transform="translate(34,47)"/>
<path d="M0 0 C0.33 0.99 0.66 1.98 1 3 C-1.05233685 5.2477975 -2.00667261 6.0022242 -5 7 C-3.75023244 3.34683329 -3.32901247 2.21934164 0 0 Z " fill="#8593AA" transform="translate(30,52)"/>
<path d="M0 0 C0.66 0.33 1.32 0.66 2 1 C0.6875 3.5 0.6875 3.5 -1 6 C-1.99 6 -2.98 6 -4 6 C-3.6875 4.125 -3.6875 4.125 -3 2 C-2.01 1.34 -1.02 0.68 0 0 Z " fill="#909DAC" transform="translate(46,24)"/>
</svg>
