<?xml version="1.0" encoding="UTF-8"?>
<svg version="1.1" xmlns="http://www.w3.org/2000/svg" width="100" height="100">
<path d="M0 0 C4.52459124 1.14171928 7.51205311 4.17556537 10.5078125 7.6328125 C11.85370707 10.32460164 11.35456742 12.20162112 11.1328125 15.1953125 C11.04497707 21.30719467 12.62701999 24.14062283 16.78125 28.5 C20.65118336 33.28050592 20.89538047 38.75340109 20.9453125 44.6953125 C20.97818359 45.38947266 21.01105469 46.08363281 21.04492188 46.79882812 C21.08499094 50.63453047 20.61563097 52.48451345 18.34375 55.609375 C15.08726819 57.93287029 13.6324692 58.18249061 9.6953125 57.9453125 C8.71949219 57.90019531 7.74367188 57.85507813 6.73828125 57.80859375 C5.63419922 57.72158203 5.63419922 57.72158203 4.5078125 57.6328125 C3.56112437 61.66387165 3.38247743 65.50106065 3.2578125 69.6328125 C2.94688183 73.93176698 2.73485535 76.2373185 0.5703125 80.0078125 C-3.81781536 82.33620687 -7.63094374 82.66327032 -12.4921875 81.6328125 C-14.008125 80.364375 -14.008125 80.364375 -15.5546875 79.0703125 C-18.75241773 76.41687678 -19.21389493 76.26566528 -23.1171875 76.5703125 C-26.25825728 77.10163774 -27.19988979 77.32165687 -29.4296875 79.6953125 C-31.99202005 82.10235217 -32.98856007 81.92507057 -36.4296875 81.9453125 C-39.88403326 81.81284496 -43.11612191 81.39514989 -46.4921875 80.6328125 C-46.8221875 80.9628125 -47.1521875 81.2928125 -47.4921875 81.6328125 C-51.80924272 82.36059192 -55.79693364 82.55803908 -59.7109375 80.421875 C-62.55011666 77.94341122 -64.22931927 75.92852517 -64.98828125 72.1875 C-65.12318204 66.99778722 -63.97110505 62.59153606 -62.4921875 57.6328125 C-62.03979093 53.97386882 -61.74490394 50.31050178 -61.4921875 46.6328125 C-62.2759375 46.3646875 -63.0596875 46.0965625 -63.8671875 45.8203125 C-66.4921875 44.6328125 -66.4921875 44.6328125 -68.4921875 41.6328125 C-69.64808834 36.72497122 -69.16577725 32.859976 -66.73828125 28.4375 C-65.2755962 26.22384785 -63.80281582 24.01683513 -62.3203125 21.81640625 C-60.10155466 17.95254377 -59.84303405 15.15737756 -59.7578125 10.796875 C-59.29101496 6.99384798 -57.20686143 5.21506332 -54.4921875 2.6328125 C-50.76794802 0.77069276 -46.54680879 1.06068802 -42.4921875 1.6328125 C-39.93757364 3.02435013 -38.53910676 4.48354727 -36.4921875 6.6328125 C-35.8321875 7.2928125 -35.1721875 7.9528125 -34.4921875 8.6328125 C-33.88632812 8.41625 -33.28046875 8.1996875 -32.65625 7.9765625 C-28.03159414 6.43975378 -24.19652052 5.47226772 -19.3046875 5.7578125 C-15.55148273 5.90957506 -13.8747201 5.54954943 -10.9921875 3.1328125 C-7.45182702 0.23388203 -4.53170105 -0.2078762 0 0 Z " fill="#EBEAEC" transform="translate(74.4921875,9.3671875)"/>
<path d="M0 0 C4.10738399 1.24688442 5.27112048 2.46200232 7.5 6.0625 C7.83 7.0525 8.16 8.0425 8.5 9.0625 C9.57378906 8.68996094 10.64757812 8.31742188 11.75390625 7.93359375 C13.18984396 7.45494785 14.62605686 6.97712693 16.0625 6.5 C16.76697266 6.25314453 17.47144531 6.00628906 18.19726562 5.75195312 C23.09552532 4.14929673 26.45662292 3.95574051 31.5 5.0625 C32.1875 7.875 32.1875 7.875 32.5 11.0625 C30.11993074 14.55683389 26.34850475 15.41504992 22.5 16.75 C21.2625 17.18699219 20.025 17.62398437 18.75 18.07421875 C15.5 19.0625 15.5 19.0625 12.5 19.0625 C12.25759977 20.69004437 12.01975464 22.31835726 11.80078125 23.94921875 C11.60104089 25.35258932 11.36938182 26.7518019 11.10546875 28.14453125 C10.38224678 32.55539049 10.53413981 35.6812996 11.9375 39.9375 C13.60977893 45.34736087 13.84173255 50.44505392 13.875 56.0625 C13.88845459 56.90022949 13.90190918 57.73795898 13.91577148 58.60107422 C13.91005127 59.39271973 13.90433105 60.18436523 13.8984375 61 C13.89505371 61.71027344 13.89166992 62.42054687 13.88818359 63.15234375 C13.38462133 65.63025012 12.49912268 66.55345786 10.5 68.0625 C7.15807308 67.81796876 5.89456443 67.45706443 3.5 65.0625 C3.1936141 62.32815038 2.9886664 59.67970179 2.875 56.9375 C2.83632813 56.18339844 2.79765625 55.42929688 2.7578125 54.65234375 C2.66348969 52.78946816 2.58065338 50.92601745 2.5 49.0625 C2.17386719 50.18269531 1.84773438 51.30289063 1.51171875 52.45703125 C1.07081483 53.92983797 0.62938079 55.40248607 0.1875 56.875 C-0.13250977 57.98198242 -0.13250977 57.98198242 -0.45898438 59.11132812 C-0.67490234 59.82353516 -0.89082031 60.53574219 -1.11328125 61.26953125 C-1.40392456 62.25143433 -1.40392456 62.25143433 -1.70043945 63.25317383 C-2.64886942 65.39937672 -3.66662172 66.6046158 -5.5 68.0625 C-8.84192692 67.81796876 -10.10543557 67.45706443 -12.5 65.0625 C-12.22662959 61.0302865 -11.68278443 57.65619517 -10.4921875 53.7890625 C-9.43910249 49.83377469 -9.09177051 46.20751127 -8.875 42.125 C-8.83632813 41.44115234 -8.79765625 40.75730469 -8.7578125 40.05273438 C-8.66477588 38.38970487 -8.58136213 36.72614153 -8.5 35.0625 C-9.28632813 35.08570313 -10.07265625 35.10890625 -10.8828125 35.1328125 C-13.5 35.0625 -13.5 35.0625 -15.375 33.9375 C-16.5 32.0625 -16.5 32.0625 -16.5625 29.5 C-15.04033884 24.57536095 -12.76044445 20.07313521 -9.5 16.0625 C-6.796875 14.765625 -6.796875 14.765625 -4.5 14.0625 C-4.995 13.340625 -5.49 12.61875 -6 11.875 C-7.62230848 8.8331716 -8.10557395 7.43641202 -7.5 4.0625 C-5.21626353 0.59122057 -4.19428059 0.07489787 0 0 Z " fill="#707ABB" transform="translate(27.5,15.9375)"/>
<path d="M0 0 C3.57277817 0.77669091 4.81205613 1.60992819 6.875 4.625 C7.60883453 9.4473412 6.25505611 12.4599018 3.875 16.625 C4.75091797 16.98658203 4.75091797 16.98658203 5.64453125 17.35546875 C8.30352142 18.86890449 9.69272293 20.52423025 11.5625 22.9375 C12.16449219 23.69675781 12.76648438 24.45601562 13.38671875 25.23828125 C15.8586729 29.20249119 16.04074484 33.15809382 16.125 37.75 C16.15078125 38.59820312 16.1765625 39.44640625 16.203125 40.3203125 C15.875 42.625 15.875 42.625 14.51953125 44.4375 C12.875 45.625 12.875 45.625 10.3125 45.5 C7.875 44.625 7.875 44.625 5.875 41.625 C5.48112212 39.30112053 5.14013915 36.96706251 4.875 34.625 C4.77703125 35.17027344 4.6790625 35.71554688 4.578125 36.27734375 C3.75130141 40.44710064 2.76855893 44.02841508 0.8125 47.8125 C-1.6516904 52.93113079 -1.65004217 57.9772773 -1.75390625 63.5859375 C-2.125 66.625 -2.125 66.625 -3.4921875 68.55078125 C-5.125 69.625 -5.125 69.625 -7.6875 69.4375 C-10.125 68.625 -10.125 68.625 -12.125 66.625 C-12.27017744 63.7156442 -12.31130796 60.905054 -12.25 58 C-12.24097656 57.19820312 -12.23195313 56.39640625 -12.22265625 55.5703125 C-12.19906223 53.58841477 -12.16319065 51.60667019 -12.125 49.625 C-12.785 49.625 -13.445 49.625 -14.125 49.625 C-14.30675781 50.21667969 -14.48851562 50.80835938 -14.67578125 51.41796875 C-17.55127346 60.45733656 -17.55127346 60.45733656 -20.125 63.625 C-22.625 64.625 -22.625 64.625 -25.125 64.625 C-27 63.625 -27 63.625 -28.125 61.625 C-28.00318063 55.65585064 -26.09555673 49.78944499 -23.125 44.625 C-21.60407231 43.18398095 -20.03847129 41.78903538 -18.4375 40.4375 C-14.7794698 37.10714351 -13.64180793 34.87316765 -13.33862305 29.89331055 C-13.31353411 27.95489729 -13.36414019 26.01595314 -13.41796875 24.078125 C-13.0712415 19.99136651 -12.03831813 18.44677209 -9.125 15.625 C-8.465 15.625 -7.805 15.625 -7.125 15.625 C-7.785 14.635 -8.445 13.645 -9.125 12.625 C-9.67353742 9.53947699 -9.74818183 7.57266616 -7.9921875 4.90234375 C-5.42693593 2.06176413 -3.8110671 0.76221342 0 0 Z " fill="#494274" transform="translate(72.125,14.375)"/>
<path d="M0 0 C4.10738399 1.24688442 5.27112048 2.46200232 7.5 6.0625 C7.83 7.0525 8.16 8.0425 8.5 9.0625 C9.57378906 8.68996094 10.64757812 8.31742188 11.75390625 7.93359375 C13.18984396 7.45494785 14.62605686 6.97712693 16.0625 6.5 C16.76697266 6.25314453 17.47144531 6.00628906 18.19726562 5.75195312 C23.09552532 4.14929673 26.45662292 3.95574051 31.5 5.0625 C32.1875 7.875 32.1875 7.875 32.5 11.0625 C30.11993074 14.55683389 26.34850475 15.41504992 22.5 16.75 C21.2625 17.18699219 20.025 17.62398437 18.75 18.07421875 C15.5 19.0625 15.5 19.0625 12.5 19.0625 C12.25759977 20.69004437 12.01975464 22.31835726 11.80078125 23.94921875 C11.60104089 25.35258932 11.36938182 26.7518019 11.10546875 28.14453125 C10.38224678 32.55539049 10.53413981 35.6812996 11.9375 39.9375 C13.60977893 45.34736087 13.84173255 50.44505392 13.875 56.0625 C13.88845459 56.90022949 13.90190918 57.73795898 13.91577148 58.60107422 C13.91005127 59.39271973 13.90433105 60.18436523 13.8984375 61 C13.89505371 61.71027344 13.89166992 62.42054687 13.88818359 63.15234375 C13.38462133 65.63025012 12.49912268 66.55345786 10.5 68.0625 C7.15807308 67.81796876 5.89456443 67.45706443 3.5 65.0625 C3.1936141 62.32815038 2.9886664 59.67970179 2.875 56.9375 C2.83632813 56.18339844 2.79765625 55.42929688 2.7578125 54.65234375 C2.66348969 52.78946816 2.58065338 50.92601745 2.5 49.0625 C2.17386719 50.18269531 1.84773438 51.30289063 1.51171875 52.45703125 C1.07081483 53.92983797 0.62938079 55.40248607 0.1875 56.875 C-0.13250977 57.98198242 -0.13250977 57.98198242 -0.45898438 59.11132812 C-0.67490234 59.82353516 -0.89082031 60.53574219 -1.11328125 61.26953125 C-1.40392456 62.25143433 -1.40392456 62.25143433 -1.70043945 63.25317383 C-2.64886942 65.39937672 -3.66662172 66.6046158 -5.5 68.0625 C-8.84192692 67.81796876 -10.10543557 67.45706443 -12.5 65.0625 C-12.22662959 61.0302865 -11.68278443 57.65619517 -10.4921875 53.7890625 C-9.43910249 49.83377469 -9.09177051 46.20751127 -8.875 42.125 C-8.83632813 41.44115234 -8.79765625 40.75730469 -8.7578125 40.05273438 C-8.66477588 38.38970487 -8.58136213 36.72614153 -8.5 35.0625 C-9.28632813 35.08570313 -10.07265625 35.10890625 -10.8828125 35.1328125 C-13.5 35.0625 -13.5 35.0625 -15.375 33.9375 C-16.5 32.0625 -16.5 32.0625 -16.5625 29.5 C-15.04033884 24.57536095 -12.76044445 20.07313521 -9.5 16.0625 C-6.796875 14.765625 -6.796875 14.765625 -4.5 14.0625 C-4.995 13.340625 -5.49 12.61875 -6 11.875 C-7.62230848 8.8331716 -8.10557395 7.43641202 -7.5 4.0625 C-5.21626353 0.59122057 -4.19428059 0.07489787 0 0 Z M0.5 4.0625 C-0.16 5.3825 -0.82 6.7025 -1.5 8.0625 C-2.16 8.0625 -2.82 8.0625 -3.5 8.0625 C-3.5 9.0525 -3.5 10.0425 -3.5 11.0625 C-2.84 11.0625 -2.18 11.0625 -1.5 11.0625 C-1.17 12.7125 -0.84 14.3625 -0.5 16.0625 C-1.386875 16.0625 -2.27375 16.0625 -3.1875 16.0625 C-8.06693964 17.53553838 -9.18830653 20.7573897 -11.5 25.0625 C-12.16 26.0525 -12.82 27.0425 -13.5 28.0625 C-13.19159401 30.21524948 -13.19159401 30.21524948 -12.5 32.0625 C-10.52 31.7325 -8.54 31.4025 -6.5 31.0625 C-5.95255474 51.76404096 -5.95255474 51.76404096 -8.94140625 60.06640625 C-9.75127887 62.24231192 -9.75127887 62.24231192 -8.5 65.0625 C-7.015 64.5675 -7.015 64.5675 -5.5 64.0625 C-1.92961657 56.12147478 -0.81074529 47.68568183 -0.5 39.0625 C0.49 39.0625 1.48 39.0625 2.5 39.0625 C5.60928299 47.37347656 6.16015674 55.27345009 6.5 64.0625 C7.82 64.0625 9.14 64.0625 10.5 64.0625 C10.77697747 54.73759191 11.00739434 46.34245607 8.109375 37.375 C7.11292987 33.59361849 7.69713575 30.8915449 8.5 27.0625 C8.56469482 26.33506592 8.62938965 25.60763184 8.69604492 24.8581543 C9.00940169 22.341886 9.42855541 20.36794588 10.5 18.0625 C13.30118099 15.96651402 16.3033727 15.0198871 19.625 14 C20.47449219 13.70673828 21.32398438 13.41347656 22.19921875 13.11132812 C24.2906855 12.39458952 26.38747095 11.7139533 28.5 11.0625 C28.5 9.7425 28.5 8.4225 28.5 7.0625 C19.8321012 8.42896875 11.75329756 11.17934805 3.5 14.0625 C3.809375 12.4228125 3.809375 12.4228125 4.125 10.75 C4.90346525 6.9786599 4.90346525 6.9786599 2.5 4.0625 C1.84 4.0625 1.18 4.0625 0.5 4.0625 Z " fill="#494376" transform="translate(27.5,15.9375)"/>
<path d="M0 0 C1.32 0 2.64 0 4 0 C4 1.32 4 2.64 4 4 C4.66 4 5.32 4 6 4 C6 4.99 6 5.98 6 7 C5.34 7 4.68 7 4 7 C5.18141764 12.58488339 6.4677318 14.65475442 11 18 C14.77735857 23.0364781 16.1539565 26.53095816 16.0625 32.75 C16.05347656 33.54921875 16.04445312 34.3484375 16.03515625 35.171875 C16.02355469 35.77515625 16.01195312 36.3784375 16 37 C14.68 37 13.36 37 12 37 C11.01751476 32.9472484 10.91840426 29.16138263 11 25 C9.02 24.34 7.04 23.68 5 23 C4.97873047 24.19882812 4.97873047 24.19882812 4.95703125 25.421875 C4.63527501 32.83096474 3.24936184 38.22904134 0.14453125 44.921875 C-1.79596211 50.14067625 -1.90200595 55.47669916 -2 61 C-3.32 61 -4.64 61 -6 61 C-6.20483028 53.00023956 -6.13480153 45.73865554 -4 38 C-5.6396875 38.86625 -5.6396875 38.86625 -7.3125 39.75 C-8.23482422 40.23726562 -8.23482422 40.23726562 -9.17578125 40.734375 C-13.01088882 43.39513485 -14.56148546 46.9887205 -16.1875 51.25 C-16.53167969 52.14203125 -16.87585937 53.0340625 -17.23046875 53.953125 C-17.48441406 54.62859375 -17.73835938 55.3040625 -18 56 C-19.32 56 -20.64 56 -22 56 C-21.21594487 48.35546243 -18.83148533 42.33457414 -12.875 37.4375 C-8.65949329 33.60309999 -8.18974274 30.18831424 -7.75 24.75 C-7.71890137 24.05189209 -7.68780273 23.35378418 -7.65576172 22.63452148 C-7.4704177 19.18737202 -7.25689999 17.32373576 -5.078125 14.578125 C-3 13 -3 13 -1 12 C-0.34786708 9.97536745 -0.34786708 9.97536745 0 8 C-0.99 7.67 -1.98 7.34 -3 7 C-2.25 2.25 -2.25 2.25 0 0 Z " fill="#FA7576" transform="translate(69,19)"/>
<path d="M0 0 C3.96 0 7.92 0 12 0 C14.99406258 7.48515645 16.29201059 13.46595615 16.125 21.4375 C16.11597656 22.26443359 16.10695313 23.09136719 16.09765625 23.94335938 C16.07431512 25.96236708 16.03845288 27.98122356 16 30 C14.68 30 13.36 30 12 30 C11.96261719 29.03320312 11.92523438 28.06640625 11.88671875 27.0703125 C11.49374174 19.28782671 10.75712106 12.3696632 8 5 C7.01 5 6.02 5 5 5 C4.89042969 6.05058594 4.78085937 7.10117187 4.66796875 8.18359375 C3.8227387 15.81792967 2.82902572 22.79884363 0 30 C-1.32 30 -2.64 30 -4 30 C-3.68991116 28.39536551 -3.37683713 26.79130769 -3.0625 25.1875 C-2.80146484 23.84751953 -2.80146484 23.84751953 -2.53515625 22.48046875 C-2 20 -2 20 -1 17 C-0.85596652 15.66636297 -0.75409577 14.32781954 -0.68359375 12.98828125 C-0.64169922 12.23095703 -0.59980469 11.47363281 -0.55664062 10.69335938 C-0.49766602 9.51483398 -0.49766602 9.51483398 -0.4375 8.3125 C-0.39431641 7.51521484 -0.35113281 6.71792969 -0.30664062 5.89648438 C-0.20072632 3.93118553 -0.09987449 1.96561504 0 0 Z " fill="#7FBDF1" transform="translate(22,50)"/>
<path d="M0 0 C2.77823139 0.94101386 4.64577606 2.03468404 7.125 3.6875 C6.77566406 4.40292969 6.42632812 5.11835937 6.06640625 5.85546875 C2.55401341 13.54691257 1.27463804 20.2533561 1.125 28.6875 C-0.195 28.6875 -1.515 28.6875 -2.875 28.6875 C-3.07983028 20.68773956 -3.00980153 13.42615554 -0.875 5.6875 C-1.968125 6.265 -3.06125 6.8425 -4.1875 7.4375 C-4.80238281 7.76234375 -5.41726562 8.0871875 -6.05078125 8.421875 C-9.88588882 11.08263485 -11.43648546 14.6762205 -13.0625 18.9375 C-13.40667969 19.82953125 -13.75085937 20.7215625 -14.10546875 21.640625 C-14.35941406 22.31609375 -14.61335938 22.9915625 -14.875 23.6875 C-16.195 23.6875 -17.515 23.6875 -18.875 23.6875 C-17.9344047 14.51669581 -13.95695925 7.56480748 -7.32421875 1.25 C-4.44140311 -0.58911684 -3.30413697 -0.68993398 0 0 Z " fill="#7EBBEF" transform="translate(65.875,51.3125)"/>
<path d="M0 0 C3.73390069 3.24687017 3.91479049 5.84236795 4.2734375 10.71484375 C4.3130826 12.12224463 4.34676949 13.5298239 4.375 14.9375 C4.43107422 15.99227539 4.43107422 15.99227539 4.48828125 17.06835938 C4.55366229 20.9440021 4.1303849 22.81986607 1.83984375 25.984375 C-1.41857639 28.29709136 -2.87939097 28.54943428 -6.8125 28.3125 C-7.78832031 28.26738281 -8.76414062 28.22226563 -9.76953125 28.17578125 C-10.50558594 28.11777344 -11.24164063 28.05976562 -12 28 C-12.94668813 32.03105915 -13.12533507 35.86824815 -13.25 40 C-13.56093067 44.29895448 -13.77295715 46.604506 -15.9375 50.375 C-20.17519168 52.6235711 -24.2896863 53.00042061 -29 52 C-29.66 51.01 -30.32 50.02 -31 49 C-30.11248047 49.08701172 -30.11248047 49.08701172 -29.20703125 49.17578125 C-25.14684211 49.40760282 -22.63046361 49.34150112 -19 47.375 C-16.26391396 42.75785481 -16.39303195 38.67336479 -16.3359375 33.375 C-15.97106607 29.70931497 -15.38045207 27.8055328 -13 25 C-10.63488848 24.64567618 -8.7117868 24.98807054 -6.3515625 25.3125 C-3.75173892 25.15870492 -3.75173892 25.15870492 -1.234375 22.96875 C1.59831073 19.20504168 1.5520582 17.15942628 1.375 12.5 C1.34148437 11.2109375 1.30796875 9.921875 1.2734375 8.59375 C1.04794517 5.63013646 0.67741187 2.88732926 0 0 Z " fill="#020202" transform="translate(91,39)"/>
<path d="M0 0 C1.32 0 2.64 0 4 0 C4 1.32 4 2.64 4 4 C4.66 4 5.32 4 6 4 C6 4.99 6 5.98 6 7 C5.34 7 4.68 7 4 7 C4 9.31 4 11.62 4 14 C2.68 13.67 1.36 13.34 0 13 C0 11.35 0 9.7 0 8 C-0.99 7.67 -1.98 7.34 -3 7 C-2.25 2.25 -2.25 2.25 0 0 Z " fill="#F6C0A0" transform="translate(69,19)"/>
<path d="M0 0 C0.66 0 1.32 0 2 0 C4.8352113 5.5522888 5.37952295 9.80112515 5 16 C3.68 16 2.36 16 1 16 C0.01751476 11.9472484 -0.08159574 8.16138263 0 4 C-0.66 4 -1.32 4 -2 4 C-1.34 2.68 -0.68 1.36 0 0 Z " fill="#EDB99D" transform="translate(80,40)"/>
<path d="M0 0 C-0.33 0.99 -0.66 1.98 -1 3 C-3.87109375 4.38671875 -3.87109375 4.38671875 -7.4375 5.6875 C-8.61183594 6.12449219 -9.78617188 6.56148437 -10.99609375 7.01171875 C-14 8 -14 8 -16 8 C-16.33 6.35 -16.66 4.7 -17 3 C-14.92085336 2.29994051 -12.83648414 1.61537756 -10.75 0.9375 C-9.58984375 0.55464844 -8.4296875 0.17179687 -7.234375 -0.22265625 C-4.19922915 -0.95211763 -2.84296787 -1.11889082 0 0 Z " fill="#EEBB9F" transform="translate(57,24)"/>
<path d="M0 0 C-1.20523048 3.61569144 -2.07185564 3.94669545 -5.3125 5.75 C-6.48232422 6.42289063 -6.48232422 6.42289063 -7.67578125 7.109375 C-10.30300917 8.11611108 -11.40927388 7.97226335 -14 7 C-13.38722388 4.03824877 -12.74627478 2.61941217 -11 0 C-7.07989501 -0.87113444 -3.82977542 -1.37871915 0 0 Z " fill="#F5C1A4" transform="translate(28,40)"/>
<path d="M0 0 C0.33 0 0.66 0 1 0 C2.3692896 11.8840813 2.3692896 11.8840813 -0.8984375 16.93359375 C-3.16877981 19.22965191 -5.29577301 21.23454611 -8 23 C-8.99 23 -9.98 23 -11 23 C-9.62342478 19.79721445 -8.11730296 18.12498007 -5.4375 15.9375 C-2.15459496 12.81772067 -1.46899669 10.62027871 -1.125 6.125 C-1.10695313 5.17882813 -1.08890625 4.23265625 -1.0703125 3.2578125 C-1 1 -1 1 0 0 Z " fill="#443D71" transform="translate(60,38)"/>
<path d="M0 0 C0 0.99 0 1.98 0 3 C-0.60328125 3.02578125 -1.2065625 3.0515625 -1.828125 3.078125 C-6.94721013 3.24957147 -6.94721013 3.24957147 -10.9375 6.0625 C-13.56092003 8.52692488 -14.72285286 8.26479922 -18.25 8.25 C-19.83422847 8.18589827 -21.41820385 8.10867302 -23 8 C-23.33 7.34 -23.66 6.68 -24 6 C-22.96939453 5.83564453 -22.96939453 5.83564453 -21.91796875 5.66796875 C-21.01691406 5.50941406 -20.11585937 5.35085937 -19.1875 5.1875 C-17.84751953 4.96126953 -17.84751953 4.96126953 -16.48046875 4.73046875 C-13.74819521 3.92584646 -12.93458551 2.99288809 -11 1 C-9.0625 0.48828125 -9.0625 0.48828125 -7 0.3125 C-6.319375 0.24675781 -5.63875 0.18101563 -4.9375 0.11328125 C-3.29404022 0.01719187 -1.64626645 0 0 0 Z " fill="#000000" transform="translate(56,83)"/>
<path d="M0 0 C0.99 0.33 1.98 0.66 3 1 C3.74926071 4.66305234 4.2380014 7.42355152 3 11 C1.68 11 0.36 11 -1 11 C-1.33 9.68 -1.66 8.36 -2 7 C-2.66 7 -3.32 7 -4 7 C-4 6.01 -4 5.02 -4 4 C-3.34 4 -2.68 4 -2 4 C-1.34 2.68 -0.68 1.36 0 0 Z " fill="#EEBB9F" transform="translate(28,20)"/>
<path d="M0 0 C1.12377697 3.30435084 0.89554742 5.0506862 -0.4375 8.25 C-0.72496094 8.95640625 -1.01242188 9.6628125 -1.30859375 10.390625 C-1.53675781 10.92171875 -1.76492187 11.4528125 -2 12 C-2.66 12 -3.32 12 -4 12 C-4.66 13.32 -5.32 14.64 -6 16 C-5.43215818 10.5487185 -4.17545909 6.04706509 -2 1 C-1.34 0.67 -0.68 0.34 0 0 Z " fill="#4F4A7B" transform="translate(50,60)"/>
<path d="M0 0 C2.6875 0.875 2.6875 0.875 5 2 C4.0409375 2.4640625 4.0409375 2.4640625 3.0625 2.9375 C1.06389179 3.8345163 1.06389179 3.8345163 0 5 C-2.21484375 5.203125 -2.21484375 5.203125 -4.9375 5.25 C-6.28134766 5.28867188 -6.28134766 5.28867188 -7.65234375 5.328125 C-8.42707031 5.21984375 -9.20179687 5.1115625 -10 5 C-10.66 4.01 -11.32 3.02 -12 2 C-11.07767578 2.03480469 -11.07767578 2.03480469 -10.13671875 2.0703125 C-8.92435547 2.09738281 -8.92435547 2.09738281 -7.6875 2.125 C-6.48673828 2.15980469 -6.48673828 2.15980469 -5.26171875 2.1953125 C-2.71611424 2.15817322 -2.71611424 2.15817322 0 0 Z " fill="#050505" transform="translate(27,86)"/>
<path d="M0 0 C0.66 0.33 1.32 0.66 2 1 C1.52433594 2.05767578 1.52433594 2.05767578 1.0390625 3.13671875 C-0.04538286 6.12505879 -0.3964359 8.65069658 -0.625 11.8125 C-0.69976562 12.78832031 -0.77453125 13.76414062 -0.8515625 14.76953125 C-0.90054688 15.50558594 -0.94953125 16.24164063 -1 17 C-1.33 17 -1.66 17 -2 17 C-2.23226327 15.00917197 -2.46437259 13.01832572 -2.6953125 11.02734375 C-2.93883106 8.93570369 -2.93883106 8.93570369 -3.8125 6.8125 C-4 5 -4 5 -2.0625 2.25 C-1.381875 1.5075 -0.70125 0.765 0 0 Z " fill="#5B4875" transform="translate(63,30)"/>
<path d="M0 0 C3 3 3 3 3.29296875 5.69921875 C3.25816406 6.68535156 3.22335938 7.67148437 3.1875 8.6875 C3.16042969 9.68136719 3.13335937 10.67523438 3.10546875 11.69921875 C3.07066406 12.45847656 3.03585938 13.21773437 3 14 C2.01 13.67 1.02 13.34 0 13 C0 8.71 0 4.42 0 0 Z " fill="#030303" transform="translate(83,16)"/>
<path d="M0 0 C0 0.33 0 0.66 0 1 C-1.65 1.33 -3.3 1.66 -5 2 C-4.34 2.66 -3.68 3.32 -3 4 C-5.9826906 5.52448631 -8.818202 6.93940067 -12 8 C-9.40790268 1.95177293 -6.74363595 -0.61305781 0 0 Z " fill="#5C537D" transform="translate(75,15)"/>
<path d="M0 0 C0.99 0 1.98 0 3 0 C2.62403791 2.78211944 2.32681541 4.5879284 0.5625 6.8125 C-1 8 -1 8 -3 8 C-1.125 2.25 -1.125 2.25 0 0 Z " fill="#4F4879" transform="translate(15,36)"/>
</svg>
