<?xml version="1.0" encoding="UTF-8"?>
<svg version="1.1" xmlns="http://www.w3.org/2000/svg" width="100" height="100">
<path d="M0 0 C0.61746094 0.22816406 1.23492187 0.45632813 1.87109375 0.69140625 C10.68534605 3.68315399 17.28669151 2.78084314 26 0 C26.30679688 0.64582031 26.61359375 1.29164063 26.9296875 1.95703125 C30.18209304 5.16648049 33.72223394 4.63614581 38.125 4.6875 C46.91086957 4.91086957 46.91086957 4.91086957 48 6 C48.09975032 8.51136104 48.13882183 10.98903415 48.125 13.5 C48.12886719 14.20253906 48.13273437 14.90507812 48.13671875 15.62890625 C48.12661378 20.87338622 48.12661378 20.87338622 47 22 C45.14712498 22.07226502 43.29166122 22.0838122 41.4375 22.0625 C40.42558594 22.05347656 39.41367188 22.04445313 38.37109375 22.03515625 C37.58863281 22.02355469 36.80617187 22.01195313 36 22 C36.00523682 23.17618896 36.01047363 24.35237793 36.01586914 25.56420898 C36.03391663 29.91202031 36.04543108 34.2598283 36.05493164 38.60766602 C36.05997244 40.4924373 36.06680498 42.37720465 36.07543945 44.26196289 C36.08751617 46.96501636 36.09323068 49.66801831 36.09765625 52.37109375 C36.10281754 53.21900986 36.10797882 54.06692596 36.11329651 54.9405365 C36.11349195 56.96071068 36.06206211 58.98077934 36 61 C34.45498549 62.54501451 33.0133978 62.12719131 30.86328125 62.12939453 C29.54686646 62.13412277 29.54686646 62.13412277 28.20385742 62.13894653 C27.24970947 62.1369223 26.29556152 62.13489807 25.3125 62.1328125 C23.85324097 62.13424759 23.85324097 62.13424759 22.36450195 62.13571167 C20.303222 62.13639358 18.24193992 62.13453853 16.18066406 62.13037109 C13.01362312 62.125023 9.846724 62.13031572 6.6796875 62.13671875 C4.68229135 62.13605797 2.68489529 62.13477681 0.6875 62.1328125 C-0.26664795 62.13483673 -1.2207959 62.13686096 -2.20385742 62.13894653 C-3.08146729 62.13579437 -3.95907715 62.13264221 -4.86328125 62.12939453 C-5.63969971 62.12859894 -6.41611816 62.12780334 -7.21606445 62.12698364 C-9 62 -9 62 -10 61 C-10.08865208 58.1156618 -10.11521296 55.25537842 -10.09765625 52.37109375 C-10.0962413 51.50686295 -10.09482635 50.64263214 -10.09336853 49.75221252 C-10.08775239 46.98060708 -10.07519719 44.2090812 -10.0625 41.4375 C-10.05748708 39.5631522 -10.05292381 37.68880315 -10.04882812 35.81445312 C-10.03777772 31.20960456 -10.0205023 26.60481579 -10 22 C-10.78246094 22.01160156 -11.56492187 22.02320312 -12.37109375 22.03515625 C-13.38300781 22.04417969 -14.39492188 22.05320312 -15.4375 22.0625 C-16.44683594 22.07410156 -17.45617187 22.08570312 -18.49609375 22.09765625 C-21 22 -21 22 -22 21 C-22.09975032 18.48863896 -22.13882183 16.01096585 -22.125 13.5 C-22.12886719 12.79746094 -22.13273437 12.09492188 -22.13671875 11.37109375 C-22.12661378 6.12661378 -22.12661378 6.12661378 -21 5 C-17.20348327 4.83017569 -13.41326362 4.7025264 -9.61328125 4.65820312 C-4.75901911 4.62825623 -4.75901911 4.62825623 -0.9296875 1.95703125 C-0.62289062 1.31121094 -0.31609375 0.66539062 0 0 Z " fill="#F2ECEB" transform="translate(37,0)"/>
<path d="M0 0 C0.87760986 -0.00315216 1.75521973 -0.00630432 2.65942383 -0.009552 C3.61357178 -0.00752777 4.56771973 -0.00550354 5.55078125 -0.00341797 C6.52362061 -0.00437469 7.49645996 -0.00533142 8.4987793 -0.00631714 C10.56005925 -0.00699905 12.62134133 -0.00514399 14.68261719 -0.00097656 C17.84965813 0.00437153 21.01655725 -0.00092119 24.18359375 -0.00732422 C26.1809899 -0.00666344 28.17838596 -0.00538228 30.17578125 -0.00341797 C31.1299292 -0.0054422 32.08407715 -0.00746643 33.06713867 -0.009552 C34.38355347 -0.00482376 34.38355347 -0.00482376 35.7265625 0 C36.50298096 0.00079559 37.27939941 0.00159119 38.0793457 0.00241089 C39.86328125 0.12939453 39.86328125 0.12939453 40.86328125 1.12939453 C40.95183286 3.79565484 40.97852798 6.43586568 40.9609375 9.10205078 C40.95952255 9.89969345 40.9581076 10.69733612 40.95664978 11.51914978 C40.95103441 14.07676889 40.93847937 16.63430171 40.92578125 19.19189453 C40.92076823 20.92171098 40.91620498 22.65152879 40.91210938 24.38134766 C40.90190916 28.63075692 40.88233693 32.87997869 40.86328125 37.12939453 C33.93328125 37.12939453 27.00328125 37.12939453 19.86328125 37.12939453 C18.89511645 33.25673533 18.78705267 30.09328091 18.86328125 26.12939453 C18.20328125 26.12939453 17.54328125 26.12939453 16.86328125 26.12939453 C16.88390625 27.20189453 16.90453125 28.27439453 16.92578125 29.37939453 C16.86328125 33.12939453 16.86328125 33.12939453 15.86328125 37.12939453 C8.93328125 37.12939453 2.00328125 37.12939453 -5.13671875 37.12939453 C-5.15962771 32.02069642 -5.17955476 26.91217528 -5.19165039 21.8034668 C-5.19669079 20.06420285 -5.20352305 18.32494317 -5.2121582 16.58569336 C-5.22423667 14.09113516 -5.22994983 11.5966328 -5.234375 9.10205078 C-5.23953629 8.31975601 -5.24469757 7.53746124 -5.25001526 6.73146057 C-5.25021101 4.86372339 -5.19871569 2.99610249 -5.13671875 1.12939453 C-3.59170424 -0.41561997 -2.15011655 0.00220322 0 0 Z " fill="#680589" transform="translate(32.13671875,62.87060546875)"/>
<path d="M0 0 C2.60399851 0.76214591 5.06946162 1.68155498 7.5625 2.75 C7.19125 3.4925 6.82 4.235 6.4375 5 C5.23732687 7.66018742 5.23732687 7.66018742 6.52734375 9.65625 C7.74982174 12.12888473 7.65244945 13.30407353 7.25 16 C7.14171875 16.79019531 7.0334375 17.58039062 6.921875 18.39453125 C6.80328125 19.17183594 6.6846875 19.94914062 6.5625 20.75 C5.92926572 25.18263999 5.45016349 29.52265872 5.3125 34 C5.28671875 34.80953125 5.2609375 35.6190625 5.234375 36.453125 C5.37415831 38.84291132 5.37415831 38.84291132 7.06640625 40.59375 C10.14746688 45.03433869 8.7052206 51.61205851 8.5625 56.75 C1.9625 56.75 -4.6375 56.75 -11.4375 56.75 C-11.4375 43.55 -11.4375 30.35 -11.4375 16.75 C-15.3975 16.75 -19.3575 16.75 -23.4375 16.75 C-23.4375 12.13 -23.4375 7.51 -23.4375 2.75 C-22.25671875 2.70101563 -21.0759375 2.65203125 -19.859375 2.6015625 C-18.30206063 2.52651121 -16.74477009 2.45096439 -15.1875 2.375 C-14.41019531 2.3440625 -13.63289063 2.313125 -12.83203125 2.28125 C-8.42027224 2.05500595 -4.01606991 -0.41190461 0 0 Z " fill="#F3EEED" transform="translate(40.4375,3.25)"/>
<path d="M0 0 C0.61746094 0.22816406 1.23492187 0.45632813 1.87109375 0.69140625 C10.68534605 3.68315399 17.28669151 2.78084314 26 0 C26.30679688 0.64582031 26.61359375 1.29164063 26.9296875 1.95703125 C30.18209304 5.16648049 33.72223394 4.63614581 38.125 4.6875 C46.91086957 4.91086957 46.91086957 4.91086957 48 6 C48.09975032 8.51136104 48.13882183 10.98903415 48.125 13.5 C48.12886719 14.20253906 48.13273437 14.90507812 48.13671875 15.62890625 C48.12661378 20.87338622 48.12661378 20.87338622 47 22 C45.14712498 22.07226502 43.29166122 22.0838122 41.4375 22.0625 C40.42558594 22.05347656 39.41367188 22.04445313 38.37109375 22.03515625 C37.58863281 22.02355469 36.80617187 22.01195313 36 22 C36.00523682 23.17618896 36.01047363 24.35237793 36.01586914 25.56420898 C36.03391663 29.91202031 36.04543108 34.2598283 36.05493164 38.60766602 C36.05997244 40.4924373 36.06680498 42.37720465 36.07543945 44.26196289 C36.08751617 46.96501636 36.09323068 49.66801831 36.09765625 52.37109375 C36.10281754 53.21900986 36.10797882 54.06692596 36.11329651 54.9405365 C36.11349195 56.96071068 36.06206211 58.98077934 36 61 C34.45498549 62.54501451 33.0133978 62.12719131 30.86328125 62.12939453 C29.54686646 62.13412277 29.54686646 62.13412277 28.20385742 62.13894653 C27.24970947 62.1369223 26.29556152 62.13489807 25.3125 62.1328125 C23.85324097 62.13424759 23.85324097 62.13424759 22.36450195 62.13571167 C20.303222 62.13639358 18.24193992 62.13453853 16.18066406 62.13037109 C13.01362312 62.125023 9.846724 62.13031572 6.6796875 62.13671875 C4.68229135 62.13605797 2.68489529 62.13477681 0.6875 62.1328125 C-0.26664795 62.13483673 -1.2207959 62.13686096 -2.20385742 62.13894653 C-3.08146729 62.13579437 -3.95907715 62.13264221 -4.86328125 62.12939453 C-5.63969971 62.12859894 -6.41611816 62.12780334 -7.21606445 62.12698364 C-9 62 -9 62 -10 61 C-10.08865208 58.1156618 -10.11521296 55.25537842 -10.09765625 52.37109375 C-10.0962413 51.50686295 -10.09482635 50.64263214 -10.09336853 49.75221252 C-10.08775239 46.98060708 -10.07519719 44.2090812 -10.0625 41.4375 C-10.05748708 39.5631522 -10.05292381 37.68880315 -10.04882812 35.81445312 C-10.03777772 31.20960456 -10.0205023 26.60481579 -10 22 C-10.78246094 22.01160156 -11.56492187 22.02320312 -12.37109375 22.03515625 C-13.38300781 22.04417969 -14.39492188 22.05320312 -15.4375 22.0625 C-16.44683594 22.07410156 -17.45617187 22.08570312 -18.49609375 22.09765625 C-21 22 -21 22 -22 21 C-22.09975032 18.48863896 -22.13882183 16.01096585 -22.125 13.5 C-22.12886719 12.79746094 -22.13273437 12.09492188 -22.13671875 11.37109375 C-22.12661378 6.12661378 -22.12661378 6.12661378 -21 5 C-19.65732587 4.91368126 -18.31025678 4.89293527 -16.96484375 4.90234375 C-16.15595703 4.90556641 -15.34707031 4.90878906 -14.51367188 4.91210938 C-13.66353516 4.92048828 -12.81339844 4.92886719 -11.9375 4.9375 C-11.08349609 4.94201172 -10.22949219 4.94652344 -9.34960938 4.95117188 C-7.23304337 4.96299627 -5.11651315 4.98093231 -3 5 C-3 5.33 -3 5.66 -3 6 C-8.61 6 -14.22 6 -20 6 C-20 10.62 -20 15.24 -20 20 C-16.04 20 -12.08 20 -8 20 C-8 33.2 -8 46.4 -8 60 C-1.4 60 5.2 60 12 60 C11.896875 57.7725 11.79375 55.545 11.6875 53.25 C11.62949219 51.99703125 11.57148437 50.7440625 11.51171875 49.453125 C10.97737302 45.84731109 10.2136513 44.74071113 8 42 C6.92879417 35.6418751 8.36100557 29.01115855 9.5625 22.76171875 C10.1781969 18.87513206 10.4843799 16.04524083 8.8125 12.4375 C8.544375 11.633125 8.27625 10.82875 8 10 C9.44921875 7.84765625 9.44921875 7.84765625 11 6 C9.39658445 5.66307215 7.79223445 5.33058907 6.1875 5 C4.84751953 4.7215625 4.84751953 4.7215625 3.48046875 4.4375 C0.92739307 3.91315157 0.92739307 3.91315157 -2 4 C-1.34 2.68 -0.68 1.36 0 0 Z M21.640625 12.37109375 C19.54580705 14.45094872 17.88008527 14.6522346 15 15 C15.144375 16.11117188 15.28875 17.22234375 15.4375 18.3671875 C17.8446391 37.3953546 17.8446391 37.3953546 17 42 C16.50242188 42.59683594 16.00484375 43.19367187 15.4921875 43.80859375 C13.3410005 46.9677977 13.70775077 49.47902779 13.8125 53.25 C13.874375 55.4775 13.93625 57.705 14 60 C20.6 60 27.2 60 34 60 C34 46.8 34 33.6 34 20 C37.63 20 41.26 20 45 20 C45 15.71 45 11.42 45 7 C31.97745051 5.5931457 31.97745051 5.5931457 21.640625 12.37109375 Z " fill="#6B0E8C" transform="translate(37,0)"/>
<path d="M0 0 C6.6 0 13.2 0 20 0 C20 9.24 20 18.48 20 28 C14.39 28 8.78 28 3 28 C2.48939645 25.20991633 1.99140398 22.41847666 1.5 19.625 C1.35691406 18.85027344 1.21382812 18.07554688 1.06640625 17.27734375 C0.02541085 11.2792274 0 6.26784286 0 0 Z " fill="#516DA9" transform="translate(51,70)"/>
<path d="M0 0 C6.6 0 13.2 0 20 0 C20 6.94417727 19.73807253 12.92156225 18.5 19.625 C18.35691406 20.43839844 18.21382812 21.25179687 18.06640625 22.08984375 C17.71851148 24.06124743 17.36036943 26.03083847 17 28 C11.39 28 5.78 28 0 28 C0 18.76 0 9.52 0 0 Z " fill="#526EAA" transform="translate(29,70)"/>
<path d="M0 0 C0.74886475 0.00523682 1.49772949 0.01047363 2.26928711 0.01586914 C3.07817383 0.0190918 3.88706055 0.02231445 4.72045898 0.02563477 C5.5705957 0.03401367 6.42073242 0.04239258 7.29663086 0.05102539 C8.15063477 0.05553711 9.00463867 0.06004883 9.88452148 0.06469727 C12.00108749 0.07652166 14.11761771 0.0944577 16.23413086 0.11352539 C16.23413086 0.44352539 16.23413086 0.77352539 16.23413086 1.11352539 C10.62413086 1.11352539 5.01413086 1.11352539 -0.76586914 1.11352539 C-0.76586914 5.73352539 -0.76586914 10.35352539 -0.76586914 15.11352539 C3.19413086 15.11352539 7.15413086 15.11352539 11.23413086 15.11352539 C11.23413086 28.31352539 11.23413086 41.51352539 11.23413086 55.11352539 C25.09413086 55.11352539 38.95413086 55.11352539 53.23413086 55.11352539 C53.23413086 41.91352539 53.23413086 28.71352539 53.23413086 15.11352539 C57.19413086 15.11352539 61.15413086 15.11352539 65.23413086 15.11352539 C65.23413086 10.82352539 65.23413086 6.53352539 65.23413086 2.11352539 C65.89413086 2.11352539 66.55413086 2.11352539 67.23413086 2.11352539 C67.26098498 4.42596331 67.28045927 6.73848809 67.29663086 9.05102539 C67.30823242 10.33879883 67.31983398 11.62657227 67.33178711 12.95336914 C67.23413086 16.11352539 67.23413086 16.11352539 66.23413086 17.11352539 C64.38125584 17.18579041 62.52579208 17.19733759 60.67163086 17.17602539 C59.6597168 17.16700195 58.64780273 17.15797852 57.60522461 17.14868164 C56.82276367 17.13708008 56.04030273 17.12547852 55.23413086 17.11352539 C55.23936768 18.28971436 55.24460449 19.46590332 55.25 20.67773438 C55.26804749 25.0255457 55.27956194 29.37335369 55.2890625 33.72119141 C55.2941033 35.60596269 55.30093584 37.49073004 55.30957031 39.37548828 C55.32164703 42.07854175 55.32736154 44.7815437 55.33178711 47.48461914 C55.33694839 48.33253525 55.34210968 49.18045135 55.34742737 50.05406189 C55.34762281 52.07423608 55.29619297 54.09430473 55.23413086 56.11352539 C53.68911635 57.6585399 52.24752866 57.24071671 50.09741211 57.24291992 C48.78099731 57.24764816 48.78099731 57.24764816 47.43798828 57.25247192 C46.48384033 57.25044769 45.52969238 57.24842346 44.54663086 57.24633789 C43.08737183 57.24777298 43.08737183 57.24777298 41.59863281 57.24923706 C39.53735286 57.24991897 37.47607077 57.24806392 35.41479492 57.24389648 C32.24775398 57.2385484 29.08085486 57.24384111 25.91381836 57.25024414 C23.91642221 57.24958336 21.91902615 57.2483022 19.92163086 57.24633789 C18.96748291 57.24836212 18.01333496 57.25038635 17.03027344 57.25247192 C16.15266357 57.24931976 15.27505371 57.2461676 14.37084961 57.24291992 C13.59443115 57.24212433 12.8180127 57.24132874 12.01806641 57.24050903 C10.23413086 57.11352539 10.23413086 57.11352539 9.23413086 56.11352539 C9.14547878 53.22918719 9.1189179 50.36890381 9.13647461 47.48461914 C9.13788956 46.62038834 9.1393045 45.75615753 9.14076233 44.86573792 C9.14637847 42.09413247 9.15893367 39.32260659 9.17163086 36.55102539 C9.17664378 34.6766776 9.18120705 32.80232854 9.18530273 30.92797852 C9.19635314 26.32312995 9.21362856 21.71834118 9.23413086 17.11352539 C8.45166992 17.12512695 7.66920898 17.13672852 6.86303711 17.14868164 C5.85112305 17.15770508 4.83920898 17.16672852 3.79663086 17.17602539 C2.78729492 17.18762695 1.77795898 17.19922852 0.73803711 17.21118164 C-1.76586914 17.11352539 -1.76586914 17.11352539 -2.76586914 16.11352539 C-2.86561946 13.60216435 -2.90469097 11.12449124 -2.89086914 8.61352539 C-2.89473633 7.91098633 -2.89860352 7.20844727 -2.90258789 6.48461914 C-2.89045148 0.1858233 -2.89045148 0.1858233 0 0 Z " fill="#690388" transform="translate(17.765869140625,4.886474609375)"/>
<path d="M0 0 C10.625 -0.125 10.625 -0.125 14 1 C14 13.87 14 26.74 14 40 C7.4 40 0.8 40 -6 40 C-6 39.67 -6 39.34 -6 39 C-0.39 39 5.22 39 11 39 C11 30.09 11 21.18 11 12 C7.37 12 3.74 12 0 12 C0 8.04 0 4.08 0 0 Z " fill="#CBBCC9" transform="translate(57,20)"/>
<path d="M0 0 C0.66 0.99 1.32 1.98 2 3 C3.92441415 3.50531866 3.92441415 3.50531866 6.1328125 3.51171875 C7.34130859 3.56489258 7.34130859 3.56489258 8.57421875 3.61914062 C9.41597656 3.64169922 10.25773437 3.66425781 11.125 3.6875 C12.39923828 3.73874023 12.39923828 3.73874023 13.69921875 3.79101562 C15.79901105 3.87359173 17.89948564 3.93846978 20 4 C20.495 4.99 20.495 4.99 21 6 C20.34 6 19.68 6 19 6 C19 10.29 19 14.58 19 19 C18.67 19 18.34 19 18 19 C18 14.71 18 10.42 18 6 C6.13230196 5.48033522 6.13230196 5.48033522 -4.0625 10.5625 C-5.79246458 12.38734743 -5.79246458 12.38734743 -7 14 C-7.99 13.34 -8.98 12.68 -10 12 C-9.34 12 -8.68 12 -8 12 C-8.66 11.21625 -9.32 10.4325 -10 9.625 C-12 7 -12 7 -12 5 C-10.02 4.34 -8.04 3.68 -6 3 C-6 2.01 -6 1.02 -6 0 C-3 -1 -3 -1 0 0 Z " fill="#781F93" transform="translate(64,1)"/>
<path d="M0 0 C3.63 0 7.26 0 11 0 C11.09765625 8.49609375 11.09765625 8.49609375 11 11 C10 12 10 12 7.71484375 12.09765625 C5.14322917 12.06510417 2.57161458 12.03255208 0 12 C0 8.04 0 4.08 0 0 Z " fill="#86379E" transform="translate(57,20)"/>
<path d="M0 0 C13.86 0 27.72 0 42 0 C42 0.99 42 1.98 42 3 C28.14 3 14.28 3 0 3 C0 2.01 0 1.02 0 0 Z " fill="#5569A9" transform="translate(29,65)"/>
<path d="M0 0 C2.60399851 0.76214591 5.06946162 1.68155498 7.5625 2.75 C6.36350302 5.8331351 5.08549523 8.81279492 3.5625 11.75 C0.73025169 10.59612106 -0.54222609 9.62339085 -2.53125 7.21875 C-6.43472822 3.90289216 -9.28342988 3.97496784 -14.25 3.9375 C-15.03826172 3.91236328 -15.82652344 3.88722656 -16.63867188 3.86132812 C-18.57108373 3.80277019 -20.50434327 3.77344512 -22.4375 3.75 C-22.4375 8.04 -22.4375 12.33 -22.4375 16.75 C-22.7675 16.75 -23.0975 16.75 -23.4375 16.75 C-23.4375 12.13 -23.4375 7.51 -23.4375 2.75 C-22.25671875 2.70101563 -21.0759375 2.65203125 -19.859375 2.6015625 C-18.30206063 2.52651121 -16.74477009 2.45096439 -15.1875 2.375 C-14.41019531 2.3440625 -13.63289063 2.313125 -12.83203125 2.28125 C-8.42027224 2.05500595 -4.01606991 -0.41190461 0 0 Z " fill="#8B3FA3" transform="translate(40.4375,3.25)"/>
<path d="M0 0 C0.33 0 0.66 0 1 0 C4.0062422 17.12484395 4.0062422 17.12484395 3 23 C2.51273438 23.60199219 2.02546875 24.20398438 1.5234375 24.82421875 C-0.63787377 27.9110146 -0.51498479 30.52367146 -0.6875 34.25 C-0.75324219 35.51328125 -0.81898437 36.7765625 -0.88671875 38.078125 C-0.92410156 39.04234375 -0.96148437 40.0065625 -1 41 C-1.66 41 -2.32 41 -3 41 C-3.03738281 40.03578125 -3.07476562 39.0715625 -3.11328125 38.078125 C-3.17902344 36.81484375 -3.24476562 35.5515625 -3.3125 34.25 C-3.37050781 32.99703125 -3.42851563 31.7440625 -3.48828125 30.453125 C-4.02262698 26.84731109 -4.7863487 25.74071113 -7 23 C-8.21734945 15.77444196 -6.36464444 8.09127736 -5 1 C-4.34 1.33 -3.68 1.66 -3 2 C-3.07105957 2.58491211 -3.14211914 3.16982422 -3.21533203 3.77246094 C-3.5310917 6.43032443 -3.82821795 9.08995344 -4.125 11.75 C-4.23714844 12.67039062 -4.34929688 13.59078125 -4.46484375 14.5390625 C-4.56152344 15.42851563 -4.65820312 16.31796875 -4.7578125 17.234375 C-4.89920654 18.45979004 -4.89920654 18.45979004 -5.04345703 19.70996094 C-4.99400057 22.31614982 -4.32265551 23.782214 -3 26 C-2.34 26 -1.68 26 -1 26 C0.87639873 22.85240529 1.17514928 20.92100892 0.72265625 17.3046875 C0.62146484 16.42425781 0.52027344 15.54382812 0.41601562 14.63671875 C0.29935547 13.72535156 0.18269531 12.81398438 0.0625 11.875 C-0.16017345 10.06052948 -0.37787271 8.24543941 -0.58984375 6.4296875 C-0.69159912 5.62772949 -0.79335449 4.82577148 -0.89819336 3.99951172 C-1 2 -1 2 0 0 Z " fill="#782897" transform="translate(52,19)"/>
<path d="M0 0 C0.66 0 1.32 0 2 0 C2.59069373 3.91295526 3.14261623 7.83042458 3.6875 11.75 C3.85572266 12.86117188 4.02394531 13.97234375 4.19726562 15.1171875 C4.34228516 16.18710937 4.48730469 17.25703125 4.63671875 18.359375 C4.77811279 19.34389648 4.91950684 20.32841797 5.06518555 21.34277344 C4.98636789 24.5557001 4.24921203 25.75112124 2 28 C0 28 0 28 -1.671875 26.484375 C-3.55206088 22.96732141 -2.88214261 20.02880805 -2.25 16.25 C-2.14945313 15.57195313 -2.04890625 14.89390625 -1.9453125 14.1953125 C-1.74253166 12.82784173 -1.53356393 11.46127383 -1.31835938 10.09570312 C-0.80841538 6.73883255 -0.40810176 3.37061823 0 0 Z " fill="#536AA8" transform="translate(49,17)"/>
<path d="M0 0 C13.86 0 27.72 0 42 0 C42 0.33 42 0.66 42 1 C35.4 1 28.8 1 22 1 C22.66 7.6 23.32 14.2 24 21 C22.68 20.67 21.36 20.34 20 20 C19.67 20.99 19.34 21.98 19 23 C18.10493183 20.03013448 17.96684831 17.74360212 18.33984375 14.671875 C18.42355225 13.9509668 18.50726074 13.23005859 18.59350586 12.48730469 C18.70702393 11.58399414 18.82054199 10.68068359 18.9375 9.75 C19.288125 6.8625 19.63875 3.975 20 1 C13.4 1 6.8 1 0 1 C0 0.67 0 0.34 0 0 Z " fill="#622292" transform="translate(29,69)"/>
<path d="M0 0 C0.99 0 1.98 0 3 0 C3 9.24 3 18.48 3 28 C2.01 28 1.02 28 0 28 C0 18.76 0 9.52 0 0 Z " fill="#364C8B" transform="translate(68,70)"/>
<path d="M0 0 C0.99 0 1.98 0 3 0 C3 9.24 3 18.48 3 28 C2.01 28 1.02 28 0 28 C0 18.76 0 9.52 0 0 Z " fill="#6F85C4" transform="translate(29,70)"/>
<path d="M0 0 C0.33 0.99 0.66 1.98 1 3 C1.99 3 2.98 3 4 3 C4 4.65 4 6.3 4 8 C3.01 8 2.02 8 1 8 C1 17.9 1 27.8 1 38 C7.27 38 13.54 38 20 38 C20 38.33 20 38.66 20 39 C13.4 39 6.8 39 0 39 C0 26.13 0 13.26 0 0 Z " fill="#CEAFD7" transform="translate(29,21)"/>
<path d="M0 0 C0 1.32 0 2.64 0 4 C-2.5 6.25 -2.5 6.25 -5 8 C-7.62187494 6.95125002 -8.79371361 6.35068687 -10.25 3.875 C-10.4975 3.25625 -10.745 2.6375 -11 2 C-3.57142857 -1.57142857 -3.57142857 -1.57142857 0 0 Z " fill="#ECE2E7" transform="translate(63,4)"/>
<path d="M0 0 C3.55780196 0.60990891 6.6828589 1.5783681 10 3 C8.95125002 5.62187494 8.35068687 6.79371361 5.875 8.25 C5.25625 8.4975 4.6375 8.745 4 9 C2.02 7.35 0.04 5.7 -2 4 C-1.34 2.68 -0.68 1.36 0 0 Z " fill="#EEE6E9" transform="translate(38,3)"/>
<path d="M0 0 C2.31 0 4.62 0 7 0 C7 2.64 7 5.28 7 8 C4.69 8 2.38 8 0 8 C0 5.36 0 2.72 0 0 Z " fill="#F4EFED" transform="translate(59,22)"/>
<path d="M0 0 C13.86 0 27.72 0 42 0 C42 0.99 42 1.98 42 3 C41.01 3 40.02 3 39 3 C39 2.34 39 1.68 39 1 C26.13 1 13.26 1 0 1 C0 0.67 0 0.34 0 0 Z " fill="#56459A" transform="translate(29,65)"/>
<path d="M0 0 C0.99 0 1.98 0 3 0 C3 4.29 3 8.58 3 13 C2.01 13 1.02 13 0 13 C0 8.71 0 4.42 0 0 Z " fill="#D9D3D2" transform="translate(79,7)"/>
<path d="M0 0 C0.99 0 1.98 0 3 0 C3 4.29 3 8.58 3 13 C2.01 13 1.02 13 0 13 C0 8.71 0 4.42 0 0 Z " fill="#FCFBFC" transform="translate(18,7)"/>
<path d="M0 0 C0.66 0.33 1.32 0.66 2 1 C1.34 6.94 0.68 12.88 0 19 C-2.25383903 14.49232193 -1.90337219 11.98286077 -1.125 7.25 C-1.02058594 6.55261719 -0.91617188 5.85523438 -0.80859375 5.13671875 C-0.55032364 3.42274441 -0.27667048 1.7111005 0 0 Z " fill="#75329A" transform="translate(47,20)"/>
<path d="M0 0 C0.99 0.33 1.98 0.66 3 1 C3.6875 3.0625 3.6875 3.0625 4 5 C2.02 5.99 2.02 5.99 0 7 C-0.66 5.68 -1.32 4.36 -2 3 C-1.34 2.01 -0.68 1.02 0 0 Z " fill="#5368A8" transform="translate(49,8)"/>
<path d="M0 0 C3.4375 0.8125 3.4375 0.8125 7 2 C7.33 2.99 7.66 3.98 8 5 C6.906875 4.835 5.81375 4.67 4.6875 4.5 C1.12474127 3.93281816 1.12474127 3.93281816 -2 4 C-1.34 2.68 -0.68 1.36 0 0 Z " fill="#73158F" transform="translate(37,0)"/>
<path d="M0 0 C0.99 0.33 1.98 0.66 3 1 C-0.465 3.97 -0.465 3.97 -4 7 C-4.99 6.34 -5.98 5.68 -7 5 C-6.030625 4.360625 -5.06125 3.72125 -4.0625 3.0625 C-1.23963731 1.3034741 -1.23963731 1.3034741 0 0 Z " fill="#8F45A4" transform="translate(61,8)"/>
</svg>
