<?xml version="1.0" encoding="UTF-8"?>
<!DOCTYPE svg PUBLIC "-//W3C//DTD SVG 1.1//EN" "http://www.w3.org/Graphics/SVG/1.1/DTD/svg11.dtd">
<svg xmlns="http://www.w3.org/2000/svg" version="1.1" width="100px" height="100px" style="shape-rendering:geometricPrecision; text-rendering:geometricPrecision; image-rendering:optimizeQuality; fill-rule:evenodd; clip-rule:evenodd" xmlns:xlink="http://www.w3.org/1999/xlink">
<g><path style="opacity:0.786" fill="#ad7757" d="M 14.5,4.5 C 39.1667,4.5 63.8333,4.5 88.5,4.5C 88.4246,34.5543 88.4246,64.5543 88.5,94.5C 63.4978,94.6666 38.4978,94.5 13.5,94C 12.6919,93.6924 12.0253,93.1924 11.5,92.5C 10.3421,64.5423 10.1754,36.5423 11,8.5C 11.6897,6.64977 12.8564,5.31643 14.5,4.5 Z"/></g>
<g><path style="opacity:1" fill="#fdc29b" d="M 20.5,5.5 C 42.5,5.5 64.5,5.5 86.5,5.5C 86.5,30.8333 86.5,56.1667 86.5,81.5C 64.5,81.5 42.5,81.5 20.5,81.5C 20.5,56.1667 20.5,30.8333 20.5,5.5 Z"/></g>
<g><path style="opacity:1" fill="#da986c" d="M 20.5,5.5 C 20.5,30.8333 20.5,56.1667 20.5,81.5C 17.1379,81.0695 14.3046,82.0695 12,84.5C 11.3333,59.8333 11.3333,35.1667 12,10.5C 13.484,6.5123 16.3174,4.84563 20.5,5.5 Z"/></g>
<g><path style="opacity:1" fill="#a16a4a" d="M 30.5,22.5 C 45.5,22.5 60.5,22.5 75.5,22.5C 75.5,25.5 75.5,28.5 75.5,31.5C 60.5,31.5 45.5,31.5 30.5,31.5C 30.5,28.5 30.5,25.5 30.5,22.5 Z"/></g>
<g><path style="opacity:1" fill="#fefefe" d="M 85.5,90.5 C 62.5239,92.4899 39.1906,93.1565 15.5,92.5C 13.1104,92.3152 12.1104,90.9818 12.5,88.5C 12.3898,86.626 13.0564,85.126 14.5,84C 38.5069,83.1669 62.5069,83.3335 86.5,84.5C 85.6518,86.4086 85.3184,88.4086 85.5,90.5 Z"/></g>
<g><path style="opacity:1" fill="#e6d7cf" d="M 85.5,90.5 C 86.404,91.209 86.7373,92.209 86.5,93.5C 62.6608,93.8309 38.9941,93.4976 15.5,92.5C 39.1906,93.1565 62.5239,92.4899 85.5,90.5 Z"/></g>
</svg>
